<svg xmlns="http://www.w3.org/2000/svg" width="655.532" height="547.33" viewBox="0 0 655.532 547.33"><g id="undraw_newspaper_k72w_1_" data-name="undraw_newspaper_k72w (1)" transform="translate(0 0.042)"><path id="Path_2137" data-name="Path 2137" d="M762.414,694.368H364.5l.179-42.189c.454-106.752,85.661-194.715,192.4-196.53q1.73-.029,3.465-.029h0A201.283,201.283,0,0,1,630.9,468.26c75.525,28.127,126.217,99.588,129.589,180.11Z" transform="translate(-229.948 -177.369)" fill="#fff"></path><rect id="Rectangle_780" data-name="Rectangle 780" width="655.532" height="1.641" transform="translate(0 516.999)" fill="#2f2e41"></rect><path id="Path_2138" data-name="Path 2138" d="M398.287,393.537l17.533,12.752,17.534,149.83H474.8L460.45,385.567l-57.382-22.315Z" transform="translate(-71.516 -65.233)" fill="#2f2e41"></path><path id="Path_2139" data-name="Path 2139" d="M509.3,450.669s-4.782,54.194,14.346,55.788S616.1,490.518,616.1,490.518l35.067,124.327,52.6-27.1s-31.879-140.267-51.006-148.236S569.872,415.6,569.872,415.6l-46.224,7.97Z" transform="translate(-255.853 -170.183)" fill="#2f2e41"></path><path id="Path_2140" data-name="Path 2140" d="M648.122,710.906s-9.564,36.661-3.188,39.848a115.276,115.276,0,0,1,11.157,6.376v-6.376s7.97,7.97,7.97,14.346,43.036,7.97,43.036,0-1.594-17.533-9.564-22.315S680,710.906,680,710.906Z" transform="translate(-279.909 -223.208)" fill="#2f2e41"></path><path id="Path_2141" data-name="Path 2141" d="M505.14,511.65l3.187,30.285,11.158,19.127,27.1-30.285-20.721-33.472Z" transform="translate(-90.703 -89.304)" fill="#2f2e41"></path><path id="Path_2142" data-name="Path 2142" d="M731.143,664.192s5.869-20.068,11.7-18,28.147,22.786,28.147,22.786l15.939,9.564s31.879,3.188,22.315,12.751-44.63,22.315-60.57,15.939-19.127-7.97-19.127-7.97l-4.782,3.188-19.127-4.782,3.188-33.473S713.61,678.537,731.143,664.192Z" transform="translate(-291.203 -211.56)" fill="#2f2e41"></path><circle id="Ellipse_3092" data-name="Ellipse 3092" cx="36.661" cy="36.661" r="36.661" transform="translate(270.982 7.922)" fill="#9f616a"></circle><path id="Path_2143" data-name="Path 2143" d="M545.165,194.761s3.188,33.473-6.376,33.473,1.594,41.443,27.1,41.443,35.067-49.412,35.067-49.412-17.533-6.376-14.345-27.1S545.165,194.761,545.165,194.761Z" transform="translate(-260.634 -128.66)" fill="#9f616a"></path><path id="Path_2144" data-name="Path 2144" d="M532.329,232.2l-13.4,5.741-36.366,15.386a7.384,7.384,0,0,0-4.46,7.626l13.729,122.038s-14.345,30.285,7.97,31.879l3.188,11.158,25.5-30.285,95.636-3.188,1.594-154.612-43.759-17.292S576.013,253.553,532.329,232.2Z" transform="translate(-250.338 -135.177)" fill="#3f3d56"></path><path id="Path_2145" data-name="Path 2145" d="M483.836,265.6l-5.89-1.683a4.856,4.856,0,0,0-6.13,3.9l-15.631,98.049a34.05,34.05,0,0,0,3.327,21.263c4.83,9.145,14.86,17.438,35.482,7.576L509.339,291.1Z" transform="translate(-246.326 -142.913)" fill="#3f3d56"></path><path id="Path_2146" data-name="Path 2146" d="M635.7,238.809,654.827,242l52.6,73.321,4.782,12.751,30.285-9.564s-1.594,14.345,14.346,12.752c0,0-19.127,52.6-58.976,36.661s-52.6-63.758-52.6-63.758Z" transform="translate(-278.644 -138.438)" fill="#3f3d56"></path><path id="Path_2147" data-name="Path 2147" d="M446,154.924l-71.728-28.692-3.187,9.564,33.472,28.691Z" transform="translate(-66.633 -22.674)" fill="#ccc"></path><path id="Path_2148" data-name="Path 2148" d="M543.655,163.382c1.354-.362,1.553-2.159,1.6-3.56.243-7.5,4.76-15.2,11.94-17.381a20.073,20.073,0,0,1,8.461-.466,32.049,32.049,0,0,1,11.459,3.823c1.87,1.051,3.7,2.318,5.825,2.639,1.4.212,7.466,1.976,8.861,2.224,3.067.546,5.917,3.29,8.86,2.269,2.816-.977,3.439-4.622,3.507-7.6.155-6.788-5-16.182-9.536-21.232-3.444-3.832-8.63-5.6-13.7-6.521a91.207,91.207,0,0,0-17.917-1.09c-8.113.145-16.451.771-23.767,4.281s-13.461,10.5-13.811,18.6c-.073,1.689.1,3.384-.041,5.069-.346,4.109-2.528,7.82-3.552,11.814a21.619,21.619,0,0,0,3.019,17.276c2.715,4,13.572,7.623,13.415,12.451,1.962-2.033-2.665-4.08-.7-6.113a4.834,4.834,0,0,0,1.438-5.906l-2.084-8.128a7.333,7.333,0,0,1-.18-4.523C538.983,155.791,541.4,163.985,543.655,163.382Z" transform="translate(-258.085 -116.462)" fill="#2f2e41"></path><path id="Path_2149" data-name="Path 2149" d="M364.46,131.959,334.175,249.91l117.951,41.443,68.54-57.382L563.7,104.862l-70.134,51.006Z" transform="translate(-60.004 -18.837)" fill="#f2f2f2"></path><rect id="Rectangle_781" data-name="Rectangle 781" width="1.594" height="118.692" transform="matrix(0.255, -0.967, 0.967, 0.255, 309.828, 127.441)" fill="#e6e6e6"></rect><rect id="Rectangle_782" data-name="Rectangle 782" width="1.594" height="118.692" transform="matrix(0.255, -0.967, 0.967, 0.255, 306.64, 135.41)" fill="#e6e6e6"></rect><rect id="Rectangle_783" data-name="Rectangle 783" width="1.594" height="118.692" transform="matrix(0.255, -0.967, 0.967, 0.255, 305.046, 143.38)" fill="#e6e6e6"></rect><rect id="Rectangle_784" data-name="Rectangle 784" width="1.594" height="118.692" transform="matrix(0.255, -0.967, 0.967, 0.255, 303.453, 151.35)" fill="#e6e6e6"></rect><rect id="Rectangle_785" data-name="Rectangle 785" width="1.594" height="118.692" transform="matrix(0.255, -0.967, 0.967, 0.255, 301.859, 159.319)" fill="#e6e6e6"></rect><rect id="Rectangle_786" data-name="Rectangle 786" width="1.594" height="118.692" transform="matrix(0.255, -0.967, 0.967, 0.255, 300.265, 167.289)" fill="#e6e6e6"></rect><rect id="Rectangle_787" data-name="Rectangle 787" width="1.594" height="118.692" transform="matrix(0.255, -0.967, 0.967, 0.255, 298.671, 175.259)" fill="#e6e6e6"></rect><rect id="Rectangle_788" data-name="Rectangle 788" width="1.594" height="118.692" transform="matrix(0.255, -0.967, 0.967, 0.255, 297.077, 183.228)" fill="#e6e6e6"></rect><rect id="Rectangle_789" data-name="Rectangle 789" width="1.594" height="118.692" transform="matrix(0.255, -0.967, 0.967, 0.255, 295.483, 191.198)" fill="#e6e6e6"></rect><path id="Path_2150" data-name="Path 2150" d="M512.35,357.475s35.849-21.412,51.788-7.067-46.224,35.067-46.224,35.067Z" transform="translate(-256.496 -157.588)" fill="#9f616a"></path><path id="Path_2151" data-name="Path 2151" d="M464.233,369.024l46.224-17.533s-7.97,30.285,7.97,31.879l-22.315,27.1S451.481,410.466,464.233,369.024Z" transform="translate(-247.445 -158.671)" fill="#3f3d56"></path><path id="Path_2152" data-name="Path 2152" d="M409.317,255.6l61.337,20.673-14.516,31.641L394.8,287.244Z" transform="translate(-70.89 -45.903)" fill="#e6e6e6"></path><path id="Path_2153" data-name="Path 2153" d="M541.827,166.156l46.224-35.067L575.3,174.126l-47.819,35.066Z" transform="translate(-94.715 -23.546)" fill="#ccc"></path><rect id="Rectangle_790" data-name="Rectangle 790" width="58.02" height="1.594" transform="matrix(0.797, -0.604, 0.604, 0.797, 424.318, 200.948)" fill="#e6e6e6"></rect><rect id="Rectangle_791" data-name="Rectangle 791" width="58.02" height="1.594" transform="matrix(0.797, -0.604, 0.604, 0.797, 421.13, 218.481)" fill="#e6e6e6"></rect><path id="Path_2154" data-name="Path 2154" d="M775.067,345.759s39.848-23.909,14.345-33.473-25.5,27.1-25.5,27.1S762.316,347.353,775.067,345.759Z" transform="translate(-301.654 -151.346)" fill="#9f616a"></path><path id="Path_2155" data-name="Path 2155" d="M292.056,171.888l-1.594,62.164L315.168,227l-19.924.674Z" transform="translate(-52.155 -30.872)" opacity="0.1"></path><path id="Path_2156" data-name="Path 2156" d="M280.579,704.284c4.983,18.419,22.049,29.826,22.049,29.826s8.988-18.456,4.006-36.875-22.049-29.826-22.049-29.826S275.6,685.865,280.579,704.284Z" transform="translate(-214.609 -215.398)" fill="#8985a8"></path><path id="Path_2157" data-name="Path 2157" d="M282.354,704.372c13.672,13.31,15.342,33.77,15.342,33.77s-20.5-1.119-34.17-14.429-15.342-33.77-15.342-33.77S268.682,691.062,282.354,704.372Z" transform="translate(-209.062 -219.444)" fill="#3f3d56"></path><rect id="Rectangle_792" data-name="Rectangle 792" width="24.613" height="24.613" transform="translate(513.596 311.069)" fill="#f2f2f2"></rect><rect id="Rectangle_793" data-name="Rectangle 793" width="24.613" height="24.613" transform="translate(415.143 32.119)" fill="#f2f2f2"></rect><circle id="Ellipse_3093" data-name="Ellipse 3093" cx="12.307" cy="12.307" r="12.307" transform="translate(118.143 256.92)" fill="#f2f2f2"></circle></g></svg>